# xmcd
#
# Track frame offsets: 
#        150
#        15242
#        27632
#        41416
#        52619
#        66413
#        76326
#        88047
#        101078
#        113673
#        130009
#        141577
#        153530
#        162607
#        174886
#        186952
#        200991
#        214652
#
# Disc length: 3159 seconds
#
# Revision: 3
# Processed by: cddbd v1.5.2PL0 Copyright (c) Steve Scherf et al.
# Submitted via: ExactAudioCopyFreeDBPlugin 1.0
#
DISCID=f90c5512
DTITLE=Various Artist - Legends of the Old West - 18 Great Cowboy Son
DTITLE=gs
DYEAR=2003
DGENRE=Country
TTITLE0=Ed Bruce - Mamas, Don't Let Your Babies Grow Up To Be Cowboys
TTITLE1=Frankie Laine - High Noon
TTITLE2=Eddie Arnold - Cattle Call
TTITLE3=Faron Young - Yellow Bandana
TTITLE4=Billy Walker - Cross The Brazos At Waco
TTITLE5=Claude King - The Comancheros
TTITLE6=Roy Rogers - The Yellow Rose Of Texas
TTITLE7=Tex Ritter - Billy The Kid
TTITLE8=Jack Guthrie - Oklahoma Hills
TTITLE9=Moe Bandy - Cool Water
TTITLE10=Gene Autry - Don't Fence Me In
TTITLE11=Roy Rogers - Home On The Range
TTITLE12=Frankie Laine - Rawhide
TTITLE13=Moe Bandy - Streets of Laredo
TTITLE14=Gene Autry - (I've Got Spurs That) Jingle Jangle Jingle
TTITLE15=Hank Snow - The Blue Velvet Band
TTITLE16=Tex Ritter - There's A New Moon Over My Shoulder
TTITLE17=Ed Bruce - The Last Cowboy Song
EXTD=YEAR: 2003
EXTT0=
EXTT1=
EXTT2=
EXTT3=
EXTT4=
EXTT5=
EXTT6=
EXTT7=
EXTT8=
EXTT9=
EXTT10=
EXTT11=
EXTT12=
EXTT13=
EXTT14=
EXTT15=
EXTT16=
EXTT17=
PLAYORDER=
